:FULLY-SPECIFIED
:FORCE-ALL-JOINTS-BE-3DOF
:DEGREES
2242
root -0.718193 13.8226 -16.5776 -168.053 -26.8111 168.506
lfemur 11.3844 -1.66844 -15.3889
ltibia 31.7116 -0 0
lfoot -23.6092 36.7417 0.000699206
ltoes -43.589 0 0
rfemur -72.2167 -23.9639 9.18246
rtibia 74.1526 -0 0
rfoot -6.94647 14.2979 0.00585135
rtoes 4.30236 -0 0
lowerback 9.58717 1.81172 -13.0406
upperback -3.13407 0.372084 -2.01364
thorax -8.96649 0.766709 5.09845
lowerneck 0.939367 -12.0585 -12.3803
upperneck 5.00165 -16.7802 10.1889
head 3.23544 -8.42952 4.32235
lclavicle -1.963e-15 2.9768e-14 0
lhumerus -69.5124 -17.7671 103.893
lradius 102.036 -0 0
lwrist 60.5767 0 0
lhand -11.5146 63.204 -0.0215149
lfingers 7.12502 -0 0
lthumb 13.9209 -129.481 0.316552
rclavicle -1.963e-15 2.9768e-14 0
rhumerus 49.1377 -10.0263 -58.4875
rradius 16.9775 -0 0
rwrist 34.7778 0 0
rhand -19.6423 -42.6282 -0.000156549
rfingers 7.12502 -0 0
rthumb 6.68517 -72.5022 -0.000162838
2243
root -0.724231 13.8137 -16.5982 -168.13 -26.6852 168.57
lfemur 11.4146 -1.55159 -15.3721
ltibia 31.8199 -0 0
lfoot -23.6319 36.7729 0.00105006
ltoes -43.7109 0 0
rfemur -72.2408 -23.8569 9.20297
rtibia 74.1535 -0 0
rfoot -6.90298 14.3324 0.00312423
rtoes 4.32141 -0 0
lowerback 9.47966 1.83398 -13.0975
upperback -3.10742 0.412447 -2.01495
thorax -8.88274 0.782175 5.12235
lowerneck 0.927028 -12.067 -12.3781
upperneck 5.0004 -16.7942 10.2303
head 3.242 -8.43571 4.3322
lclavicle -1.963e-15 2.9768e-14 0
lhumerus -69.5064 -17.8 103.907
lradius 102.035 -0 0
lwrist 60.5907 0 0
lhand -11.4675 63.1158 -0.0209666
lfingers 7.12502 -0 0
lthumb 14.002 -127.481 0.325581
rclavicle -1.963e-15 2.9768e-14 0
rhumerus 49.1257 -9.95564 -58.5639
rradius 16.9601 -0 0
rwrist 34.7403 0 0
rhand -19.6419 -42.6127 -0.000153265
rfingers 7.12502 -0 0
rthumb 6.68555 -72.4867 -0.000155598
2244
root -0.730268 13.8049 -16.6188 -168.177 -26.5509 168.62
lfemur 11.4693 -1.43359 -15.3634
ltibia 31.8686 -0 0
lfoot -23.6361 36.8034 0.00129515
ltoes -43.87 0 0
rfemur -72.3068 -23.7616 9.22828
rtibia 74.1974 -0 0
rfoot -6.88841 14.3706 0.000792114
rtoes 4.35078 -0 0
lowerback 9.3568 1.85788 -13.1658
upperback -3.08555 0.454878 -2.0209
thorax -8.79616 0.798929 5.14715
lowerneck 0.912115 -12.0776 -12.3726
upperneck 4.99103 -16.8098 10.2716
head 3.24645 -8.44249 4.3415
lclavicle -1.963e-15 2.9768e-14 0
lhumerus -69.4996 -17.8411 103.925
lradius 102.025 -0 0
lwrist 60.6229 0 0
lhand -11.432 62.9661 -0.019314
lfingers 7.12502 -0 0
lthumb 14.0998 -123.948 0.320954
rclavicle -1.963e-15 2.9768e-14 0
rhumerus 49.1169 -9.89118 -58.6319
rradius 16.9447 -0 0
rwrist 34.6953 0 0
rhand -19.6431 -42.5959 -0.000144901
rfingers 7.12502 -0 0
rthumb 6.68435 -72.4699 -0.000143969
2245
root -0.736306 13.796 -16.6394 -168.184 -26.4066 168.652
lfemur 11.5559 -1.31625 -15.3658
ltibia 31.8375 -0 0
lfoot -23.6162 36.8334 0.00137775
ltoes -44.0749 0 0
rfemur -72.4272 -23.6828 9.26031
rtibia 74.2966 -0 0
rfoot -6.91192 14.414 -0.000937034
rtoes 4.39525 -0 0
lowerback 9.21499 1.88355 -13.2474
upperback -3.07033 0.49959 -2.03295
thorax -8.70684 0.817174 5.17224
lowerneck 0.893888 -12.0909 -12.3628
upperneck 4.97181 -16.8273 10.3122
head 3.24831 -8.44995 4.34994
lclavicle -1.963e-15 2.9768e-14 0
lhumerus -69.4917 -17.8924 103.946
lradius 102.006 -0 0
lwrist 60.6762 0 0
lhand -11.4096 62.7481 -0.0164311
lfingers 7.12502 -0 0
lthumb 14.214 -118.712 0.295696
rclavicle -1.963e-15 2.9768e-14 0
rhumerus 49.1126 -9.83568 -58.6889
rradius 16.9319 -0 0
rwrist 34.6422 0 0
rhand -19.6467 -42.5776 -0.000128982
rfingers 7.12502 -0 0
rthumb 6.68085 -72.4516 -0.000125798
2246
root -0.742343 13.7872 -16.66 -168.141 -26.2508 168.661
lfemur 11.682 -1.20134 -15.3824
ltibia 31.7063 -0 0
lfoot -23.5666 36.8631 0.00123573
ltoes -44.3341 0 0
rfemur -72.6144 -23.6249 9.30105
rtibia 74.4635 -0 0
rfoot -6.98263 14.4643 -0.00183128
rtoes 4.45964 -0 0
lowerback 9.0506 1.91106 -13.3442
upperback -3.06365 0.546796 -2.05256
thorax -8.61487 0.837118 5.19702
lowerneck 0.871604 -12.1073 -12.3479
upperneck 4.94102 -16.8471 10.3517
head 3.24711 -8.45818 4.35721
lclavicle -1.963e-15 2.9768e-14 0
lhumerus -69.482 -17.9554 103.972
lradius 101.978 -0 0
lwrist 60.7536 0 0
lhand -11.4019 62.4551 -0.0122418
lfingers 7.12502 -0 0
lthumb 14.3416 -111.602 0.24078
rclavicle -1.963e-15 2.9768e-14 0
rhumerus 49.1139 -9.79192 -58.7322
rradius 16.9204 -0 0
rwrist 34.5803 0 0
rhand -19.6535 -42.5575 -0.000102356
rfingers 7.12502 -0 0
rthumb 6.67433 -72.4317 -9.8289e-05
2247
root -0.748381 13.7783 -16.6806 -168.039 -26.0817 168.643
lfemur 11.855 -1.09058 -15.4163
ltibia 31.4548 -0 0
lfoot -23.4816 36.8927 0.000801201
ltoes -44.6563 0 0
rfemur -72.8808 -23.5927 9.35253
rtibia 74.7108 -0 0
rfoot -7.1097 14.523 -0.0016239
rtoes 4.54873 -0 0
lowerback 8.86004 1.94048 -13.4581
upperback -3.06738 0.596705 -2.08118
thorax -8.52034 0.858967 5.22091
lowerneck 0.844518 -12.1273 -12.327
upperneck 4.89693 -16.8695 10.3894
head 3.24236 -8.46729 4.36299
lclavicle -1.963e-15 2.9768e-14 0
lhumerus -69.4701 -18.032 104.002
lradius 101.937 -0 0
lwrist 60.858 0 0
lhand -11.4105 62.0803 -0.00673818
lfingers 7.12502 -0 0
lthumb 14.475 -102.449 0.145664
rclavicle -1.963e-15 2.9768e-14 0
rhumerus 49.1221 -9.7627 -58.7595
rradius 16.9153 -0 0
rwrist 34.5088 0 0
rhand -19.6641 -42.5353 -6.10335e-05
rfingers 7.12502 -0 0
rthumb 6.66406 -72.4098 -5.78651e-05
2248
root -0.754418 13.7695 -16.7012 912.132 -25.8977 168.594
lfemur 12.0826 -0.985646 -15.4705
ltibia 31.0628 0 0
lfoot -23.3555 36.9225 0
ltoes -45.0499 0 0
rfemur -73.239 -23.5907 9.41696
rtibia 75.0507 0 0
rfoot -7.30228 14.5918 0
rtoes 4.66733 0 0
lowerback 8.63967 1.97181 -13.5908
upperback -3.0834 0.649518 -2.12027
thorax -8.42336 0.882932 5.24329
lowerneck 0.811883 -12.1514 -12.2993
upperneck 4.83781 -16.8947 10.4248
head 3.23359 -8.47738 4.36699
lclavicle -1.963e-15 2.9768e-14 0
lhumerus -69.4554 -18.124 104.039
lradius 101.883 0 0
lwrist 60.9924 0 0
lhand -11.4368 421.617 0
lfingers 7.12502 0 0
lthumb 14.5997 -451.083 0
rclavicle -1.963e-15 2.9768e-14 0
rhumerus 49.1383 -9.75081 -58.7681
rradius 16.9153 0 0
rwrist 34.427 0 0
rhand -19.6794 -402.511 0
rfingers 7.12502 0 0
rthumb 6.64932 287.614 0
2249
root -0.756687 13.767 -16.7058 -167.671 -25.7279 168.53
lfemur 12.3061 -0.8969 -15.5324
ltibia 30.6412 -0 0
lfoot -23.2222 36.9485 -0.000935124
ltoes -45.445 0 0
rfemur -73.6151 -23.6084 9.47942
rtibia 75.4051 -0 0
rfoot -7.50804 14.6573 0.0023444
rtoes 4.78885 -0 0
lowerback 8.42344 1.99936 -13.723
upperback -3.10579 0.696376 -2.16215
thorax -8.33479 0.904652 5.26329
lowerneck 0.779716 -12.1758 -12.271
upperneck 4.77518 -16.9196 10.4561
head 3.22325 -8.48729 4.36985
lclavicle 4.57329e-14 4.03036e-14 0
lhumerus -69.4412 -18.2151 104.073
lradius 101.827 -0 0
lwrist 61.1315 0 0
lhand -11.4692 61.1476 0.00599752
lfingers 7.12502 -0 0
lthumb 14.6884 -80.3203 -0.170696
rclavicle 4.57329e-14 4.03036e-14 0
rhumerus 49.1574 -9.75064 -58.7668
rradius 16.9503 -0 0
rwrist 34.3471 0 0
rhand -19.6944 -42.488 6.97533e-05
rfingers 7.12502 -0 0
rthumb 6.63483 -72.3635 6.54755e-05
2250
root -0.758956 13.7645 -16.7105 -167.497 -25.6 168.47
lfemur 12.4663 -0.831976 -15.5874
ltibia 30.3089 -0 0
lfoot -23.1176 36.9671 -0.00170262
ltoes -45.77 0 0
rfemur -73.9298 -23.632 9.52449
rtibia 75.6914 -0 0
rfoot -7.67125 14.7061 0.00439345
rtoes 4.88454 -0 0
lowerback 8.24587 2.01824 -13.8352
upperback -3.12725 0.729259 -2.19834
thorax -8.26447 0.920077 5.28063
lowerneck 0.754183 -12.1966 -12.2484
upperneck 4.72117 -16.9408 10.482
head 3.21402 -8.49584 4.37243
lclavicle 4.57329e-14 4.03036e-14 0
lhumerus -69.4308 -18.2889 104.098
lradius 101.782 -0 0
lwrist 61.2495 0 0
lhand -11.4959 60.7527 0.0096802
lfingers 7.12502 -0 0
lthumb 14.7409 -72.9416 -0.323742
rclavicle 4.57329e-14 4.03036e-14 0
rhumerus 49.1736 -9.75437 -58.7657
rradius 16.9585 -0 0
rwrist 34.2806 0 0
rhand -19.7041 -42.4699 0.000130667
rfingers 7.12502 -0 0
rthumb 6.62548 -72.3457 0.000122691
2251
root -0.761224 13.7619 -16.7151 -167.345 -25.5104 168.414
lfemur 12.5701 -0.788336 -15.6357
ltibia 30.0577 -0 0
lfoot -23.0388 36.9787 -0.00228947
ltoes -46.0306 0 0
rfemur -74.1875 -23.6607 9.5537
rtibia 75.9158 -0 0
rfoot -7.79594 14.7394 0.00606641
rtoes 4.95599 -0 0
lowerback 8.10417 2.02956 -13.9288
upperback -3.14761 0.749623 -2.22913
thorax -8.21093 0.929883 5.29565
lowerneck 0.734753 -12.214 -12.2311
upperneck 4.67501 -16.9585 10.5028
head 3.20575 -8.5031 4.37471
lclavicle 4.57329e-14 4.03036e-14 0
lhumerus -69.4239 -18.347 104.115
lradius 101.748 -0 0
lwrist 61.3488 0 0
lhand -11.5186 60.4227 0.0114514
lfingers 7.12502 -0 0
lthumb 14.7754 -68.7214 -0.449311
rclavicle 4.57329e-14 4.03036e-14 0
rhumerus 49.187 -9.76148 -58.7644
rradius 16.9667 -0 0
rwrist 34.2263 0 0
rhand -19.709 -42.4562 0.000180164
rfingers 7.12502 -0 0
rthumb 6.62074 -72.3322 0.000169214
2252
root -0.763493 13.7594 -16.7198 -167.213 -25.4553 168.361
lfemur 12.624 -0.763413 -15.6774
ltibia 29.8795 -0 0
lfoot -22.9831 36.9836 -0.002695
ltoes -46.2329 0 0
rfemur -74.3927 -23.6937 9.56858
rtibia 76.0843 -0 0
rfoot -7.88615 14.7585 0.00732612
rtoes 5.00475 -0 0
lowerback 7.99558 2.03438 -14.0055
upperback -3.16671 0.75892 -2.25481
thorax -8.1727 0.934742 5.30866
lowerneck 0.720897 -12.2283 -12.2185
upperneck 4.6359 -16.973 10.519
head 3.1983 -8.50913 4.37671
lclavicle 4.57329e-14 4.03036e-14 0
lhumerus -69.4203 -18.3909 104.125
lradius 101.723 -0 0
lwrist 61.4317 0 0
lhand -11.5388 60.1479 0.0116718
lfingers 7.12502 -0 0
lthumb 14.8056 -67.4343 -0.543534
rclavicle 4.57329e-14 4.03036e-14 0
rhumerus 49.198 -9.77147 -58.7621
rradius 16.9484 -0 0
rwrist 34.1827 0 0
rhand -19.7096 -42.4464 0.000217173
rfingers 7.12502 -0 0
rthumb 6.62011 -72.3224 0.000204018
2253
root -0.765762 13.7569 -16.7244 -167.1 -25.4308 168.313
lfemur 12.6346 -0.754613 -15.7125
ltibia 29.7661 -0 0
lfoot -22.9477 36.9824 -0.00292836
ltoes -46.3827 0 0
rfemur -74.5499 -23.7301 9.57063
rtibia 76.203 -0 0
rfoot -7.94591 14.7647 0.00816963
rtoes 5.03239 -0 0
lowerback 7.9173 2.0337 -14.0669
upperback -3.18441 0.758606 -2.27567
thorax -8.14832 0.935325 5.32
lowerneck 0.712081 -12.2396 -12.2099
upperneck 4.60304 -16.9846 10.5308
head 3.19153 -8.51401 4.37841
lclavicle 4.57329e-14 4.03036e-14 0
lhumerus -69.4198 -18.4223 104.128
lradius 101.707 -0 0
lwrist 61.5006 0 0
lhand -11.5582 59.9187 0.0106702
lfingers 7.12502 -0 0
lthumb 14.84 -68.8547 -0.604696
rclavicle 4.57329e-14 4.03036e-14 0
rhumerus 49.2067 -9.78382 -58.7583
rradius 16.9519 -0 0
rwrist 34.1484 0 0
rhand -19.7066 -42.4402 0.000241771
rfingers 7.12502 -0 0
rthumb 6.62308 -72.3162 0.000227158
2254
root -0.768031 13.7544 -16.7291 -167.006 -25.4333 168.268
lfemur 12.6087 -0.759315 -15.7411
ltibia 29.7094 -0 0
lfoot -22.9296 36.9753 -0.0030061
ltoes -46.4859 0 0
rfemur -74.6635 -23.769 9.56134
rtibia 76.2779 -0 0
rfoot -7.97923 14.7593 0.00861981
rtoes 5.0347 -0 0
lowerback 7.86653 2.0285 -14.1147
upperback -3.20053 0.750133 -2.29201
thorax -8.13633 0.932299 5.33002
lowerneck 0.707773 -12.2483 -12.2049
upperneck 4.57564 -16.9933 10.5387
head 3.18529 -8.51779 4.37981
lclavicle 4.57329e-14 4.03036e-14 0
lhumerus -69.4221 -18.4426 104.126
lradius 101.698 -0 0
lwrist 61.5578 0 0
lhand -11.5784 59.7254 0.00875236
lfingers 7.12502 -0 0
lthumb 14.8817 -72.7572 -0.631252
rclavicle 4.57329e-14 4.03036e-14 0
rhumerus 49.2133 -9.79803 -58.7526
rradius 16.9562 -0 0
rwrist 34.1219 0 0
rhand -19.7003 -42.4371 0.000254864
rfingers 7.12502 -0 0
rthumb 6.62913 -72.3129 0.000239464
